<?xml version="1.0" encoding="UTF-8"?>
<!--
  BS Bat & Ball Logo
  Combines letters B and S with stylized bat and ball for cricket branding.
-->
<svg xmlns="http://www.w3.org/2000/svg" viewBox="0 0 240 240" width="240" height="240" role="img" aria-labelledby="title desc">
  <title id="title">BS Cricket Logo</title>
  <desc id="desc">Logo combining letters B and S with a cricket bat and ball motif</desc>
  <defs>
    <linearGradient id="lg" x1="0" x2="1">
      <stop offset="0%" stop-color="#0b6623" />
      <stop offset="100%" stop-color="#f4c542" />
    </linearGradient>
  </defs>
  <rect width="240" height="240" rx="36" fill="#07203a" />
  <!-- Ball -->
  <g transform="translate(28,28)">
    <circle cx="60" cy="60" r="36" fill="url(#lg)" stroke="#fff" stroke-width="2" opacity="0.98" />
    <!-- seam -->
    <path d="M40 44 C54 56, 74 56, 88 44" stroke="#07203a" stroke-width="2" fill="none" stroke-linecap="round" />
  </g>
  <!-- Letter B as stylized bat handle -->
  <g transform="translate(110,40)">
    <rect x="0" y="0" width="18" height="120" rx="6" fill="#f4c542" transform="rotate(18 9 60)" />
    <path d="M24 28 C48 10, 88 10, 88 52 C88 94, 48 94, 24 76" fill="#07203a" opacity="0.9" transform="translate(-4,0)" />
  </g>
  <!-- Letter S curved around ball -->
  <path d="M40 150 C60 130, 110 130, 120 150 C132 174, 90 170, 80 190 C72 206, 116 206, 140 188" fill="none" stroke="#f4c542" stroke-width="10" stroke-linecap="round" stroke-linejoin="round" opacity="0.95" />
</svg>
